<svg width="187" height="323" viewBox="0 0 187 323" fill="none" xmlns="http://www.w3.org/2000/svg">
<path d="M75.4087 126.096C73.1392 115.665 70.8508 105.242 68.6098 94.8017C68.111 92.4691 67.7071 90.1047 67.3759 87.7369C66.7616 83.3332 62.7602 82.8524 59.8163 81.5627C53.5993 78.8513 47.5247 76.2185 43.8641 70.0005C41.391 65.8099 41.6651 61.3188 42.5372 56.9434C43.2031 53.6182 45.5844 52.2909 48.919 52.9851C53.6521 53.9797 57.4684 56.4533 59.6862 60.9828C61.939 65.585 64.2802 70.1365 66.514 74.745C67.0383 75.8348 67.3131 77.0611 67.9086 78.8338C68.1073 77.2585 68.4051 76.1352 68.3709 75.0285C68.125 67.1992 67.6356 59.3674 67.5984 51.5313C67.5788 47.1706 65.6454 43.8958 63.2753 40.5461C58.8367 34.273 55.3362 27.5265 55.479 19.5983C55.6191 11.8504 61.5399 6.80223 69.1374 7.53087C72.0378 7.81189 75.2532 10.2236 75.6518 13.0434C76.8834 21.8285 77.5173 30.5929 73.9511 39.1331C72.9102 41.6242 73.0562 44.6027 72.0692 47.1285C69.0639 54.8262 70.2144 62.7419 70.394 70.625C70.4111 71.1784 70.7444 71.731 70.9864 72.4515C73.447 67.1205 75.5914 61.8534 78.2773 56.8792C80.2515 53.2096 83.0263 49.7562 87.4742 49.1482C91.0844 48.6528 94.7612 49.6119 97.0928 52.7846C99.9352 56.6613 98.4108 60.6335 96.3572 64.1927C95.1415 66.2889 93.2419 68.0769 91.3958 69.7098C86.9271 73.6477 83.3593 78.7283 77.3589 80.8072C76.0065 81.2721 74.8393 82.4764 73.795 83.5446C72.2177 85.161 70.9818 86.7893 70.9912 89.4551C71.0022 96.8991 73.3712 103.889 74.6465 111.077C75.5148 115.954 76.6296 120.78 77.6465 125.629C77.7456 126.081 77.9458 126.52 78.207 127.297C80.2111 118.818 83.4157 111.18 87.8298 104.159C91.5979 98.1667 97.6349 95.5375 104.588 95.1323C107.351 94.9741 109.473 96.3922 110.731 98.8179C112.44 102.115 110.904 105.11 108.844 107.332C102.863 113.772 96.5912 119.94 90.3316 126.115C87.3217 129.088 84.055 131.799 80.9976 134.725C80.5117 135.194 80.1473 136.245 80.3132 136.865C83.063 147.186 85.8982 157.479 88.7461 167.778C88.9662 168.591 89.3917 169.355 89.8623 170.473C90.4301 169.871 90.9575 169.557 91.0893 169.133C93.6404 160.585 98.6009 153.275 103.989 146.486C108.511 140.79 114.464 135.995 122.821 138.483C127.638 139.914 129.677 142.594 128.124 147.768C126.925 151.768 124.51 155.068 121.31 157.568C115.587 162.043 109.721 166.345 103.719 170.428C100.335 172.726 96.5535 174.439 92.953 176.408C98.0352 187.455 103.289 198.887 108.546 210.328C108.846 210.28 109.156 210.229 109.456 210.181C109.627 208.52 109.926 206.869 109.938 205.209C109.986 197.281 112.069 190.167 117.754 184.322C122.389 179.559 128.175 177.784 134.556 177.813C137.295 177.832 138.625 180.065 138.862 182.591C139.338 187.495 138.786 192.322 135.541 196.228C133.813 198.307 131.195 199.619 129.273 201.562C126.425 204.449 123.985 207.737 121.101 210.584C118.52 213.139 115.575 215.331 112.302 218.086C116.598 228.142 123.585 237.103 129.037 246.96C129.319 246.918 129.6 246.877 129.872 246.838C130.12 246.195 130.502 245.572 130.598 244.917C131.974 235.699 136.633 227.962 141.672 220.415C142.454 219.256 143.973 218.376 145.341 217.864C148.143 216.817 151.009 215.77 153.949 215.32C158.824 214.569 161.435 216.973 161.804 221.839C162.198 226.97 161.07 231.432 157.433 235.396C151.797 241.541 145.125 246.176 137.829 249.988C136.269 250.808 134.369 250.992 131.853 251.669C133.501 254.375 134.962 257.123 136.732 259.661C142.774 268.318 148.916 276.899 155.033 285.499C157.955 289.612 160.902 293.707 163.818 297.833C164.198 298.37 164.415 299.014 165.057 300.297C163.741 300.053 162.713 300.166 162.276 299.712C161.004 298.409 159.91 296.909 158.86 295.416C149.935 282.696 141.029 269.969 132.145 257.214C131.437 256.207 130.922 255.051 130.373 254.044C123.673 255.798 117.239 257.78 110.677 259.099C104.532 260.34 98.2795 261.259 92.0285 261.618C86.5427 261.931 83.6972 259.459 81.9077 254.163C80.9683 251.366 79.4694 248.663 81.2424 245.493C82.8548 242.599 85.5973 241.593 88.3244 240.73C95.3047 238.522 102.541 237.484 109.661 239.523C114.635 240.954 119.29 243.473 124.079 245.514C124.509 245.696 124.94 245.879 125.899 246.284C122.093 240.199 118.561 234.582 115.082 228.936C113.92 227.048 112.467 225.173 111.937 223.093C110.619 217.976 106.581 217.983 102.796 218.051C98.3722 218.134 93.9723 219.011 89.5489 219.284C82.6814 219.692 75.9854 219.072 70.1161 214.946C65.2699 211.542 63.8981 206.391 63.6008 200.952C63.4257 197.73 66.2876 195.007 70.5233 194.239C78.5426 192.768 86.4749 193.332 93.7572 197.236C96.8317 198.883 99.3708 201.511 102.765 203.514C101.637 200.877 100.59 198.201 99.3697 195.604C96.6619 189.804 93.91 184.03 91.0569 178.3C90.6915 177.558 89.6146 176.802 88.8112 176.734C86.9862 176.577 85.0985 176.673 83.2904 176.974C74.607 178.414 65.9031 177.878 57.5276 175.744C49.4273 173.676 45.0004 168.348 44.7811 159.719C44.6833 155.753 46.6076 153.725 50.8343 153.181C60.0559 151.993 68.5305 154.579 75.9808 159.988C79.915 162.844 83.3259 166.403 86.707 169.402C84.4618 161.242 82.0923 152.681 79.7703 144.104C79.0876 141.57 78.6926 138.949 77.8393 136.472C77.5145 135.505 76.405 134.337 75.4558 134.118C69.3524 132.687 63.2175 131.288 57.0298 130.297C53.6164 129.745 50.2549 129.756 46.89 128.281C40.2804 125.374 36.4106 120.292 38.5076 112.309C39.216 109.613 40.2222 105.793 42.1902 104.9C45.9873 103.171 50.606 102.601 54.7384 105.01C59.2793 107.662 63.3908 110.606 66.2448 115.365C68.5908 119.272 72.0325 122.514 74.9849 126.059C75.1398 126.049 75.2947 126.039 75.4465 126.02L75.4087 126.096ZM106.702 214.134C105.687 212.84 105.512 212.476 105.218 212.259C99.9465 208.407 93.8323 207.76 87.5801 207.582C86.8116 207.555 86.0579 207.101 85.2952 206.841C85.9993 206.393 86.7499 205.519 87.4236 205.577C92.0698 205.936 96.707 206.488 101.189 206.956C99.7505 205.688 97.9189 204.066 96.0747 202.439C88.4506 195.727 79.4975 195.454 70.2111 197.329C68.8298 197.613 67.1855 198.999 66.6066 200.291C65.3734 203.026 67.73 210.135 70.1471 211.992C74.6425 215.451 79.8671 217.03 85.4419 216.887C90.6498 216.751 95.8502 216.091 101.038 215.519C102.749 215.335 104.407 214.715 106.702 214.134ZM127.23 251.818C127.302 251.404 127.374 250.99 127.446 250.575C126.063 250.291 124.604 249.589 123.305 249.804C117.984 250.673 112.706 251.792 107.424 252.87C105.123 253.337 104.477 253.016 104.29 251.391C110.286 250.21 116.267 249.045 122.737 247.768C119.511 246.362 116.596 244.968 113.589 243.805C105.176 240.555 96.6792 240.761 88.319 243.855C86.4896 244.532 84.267 246.112 83.6764 247.777C81.914 252.8 87.6763 259.873 92.9472 259.579C104.811 258.907 115.894 254.814 127.23 251.818ZM78.2817 164.89C70.0767 158.585 61.8827 154.259 51.6653 155.592C49.4207 155.882 47.2884 156.851 47.3883 159.001C47.5151 161.86 48.1801 164.97 49.5835 167.42C52.203 171.984 56.8829 173.228 61.9063 173.957C70.0678 175.139 78.1423 175.655 86.5398 173.615C83.1035 170.011 79.3974 167.332 74.8069 166.479C71.1972 165.814 67.4627 165.877 63.7873 165.518C63.24 165.46 62.7391 164.879 62.2133 164.539C62.342 164.137 62.4802 163.732 62.609 163.33C67.5876 163.83 72.563 164.322 78.2722 164.893L78.2817 164.89ZM72.5685 128.632C72.7233 128.527 72.878 128.423 73.0232 128.321C72.7848 127.8 72.6474 127.203 72.286 126.786C69.7935 123.826 66.7011 121.214 64.8498 117.901C61.7124 112.299 57.1758 108.78 51.4214 106.473C49.0823 105.539 43.0284 106.328 42.4665 108.141C41.4589 111.359 40.9134 114.76 40.586 118.119C40.4655 119.331 41.2913 120.878 42.1317 121.904C45.2302 125.726 49.465 127.342 54.301 127.701C56.2272 127.845 58.1445 128.277 60.0554 128.626C63.7695 129.32 67.471 130.039 71.6092 130.832C67.9516 125.911 64.1135 122.242 58.2143 121.544C57.5974 121.466 56.942 121.085 56.4698 120.653C56.2258 120.429 56.221 119.756 56.3529 119.363C56.4188 119.151 57.0729 118.9 57.3198 119.007C60.6687 120.403 64.1721 121.568 67.2659 123.398C69.3464 124.63 70.8378 126.84 72.5938 128.613L72.5685 128.632ZM93.944 172.826C96.6602 171.397 99.4689 170.274 101.865 168.583C108.195 164.125 114.516 159.607 120.503 154.695C122.627 152.948 124.148 150.158 125.268 147.556C126.809 143.979 124.771 140.708 120.901 140.71C117.956 140.708 114.574 141.095 112.171 142.577C109.079 144.491 106.408 147.404 104.232 150.381C101.329 154.332 99.0278 158.723 96.568 162.988C95.8467 164.233 95.4769 165.676 94.9488 167.024C95.142 167.16 95.3352 167.295 95.5284 167.431C100.526 163.969 105.524 160.507 110.531 157.042C110.788 157.431 111.046 157.819 111.309 158.195C106.074 161.894 100.929 165.733 95.5452 169.208C94.0359 170.179 93.3766 170.886 93.9535 172.823L93.944 172.826ZM113.281 213.654C115.115 212.141 116.899 210.856 118.47 209.347C122.566 205.397 126.379 201.142 130.662 197.403C134.584 193.976 136.032 189.744 136.195 184.827C136.313 181.19 135.308 180.24 131.786 180.558C125.994 181.09 121.662 183.896 117.836 188.304C114.755 191.849 113.936 196.007 112.776 200.152C112.343 201.721 112.527 203.463 112.42 205.124C112.689 205.202 112.968 205.277 113.24 205.365C116.087 201.561 118.933 197.756 121.783 193.961C122.068 194.182 122.366 194.409 122.651 194.63C120.48 197.806 118.695 201.381 116.017 204.053C113.288 206.763 111.465 209.221 113.291 213.65L113.281 213.654ZM147.693 228.541C148.039 228.847 148.394 229.149 148.736 229.446C143.352 235.495 137.958 241.548 132.574 247.597C132.831 247.89 133.094 248.171 133.351 248.465C134.602 248.044 135.927 247.779 137.086 247.179C143.574 243.849 149.49 239.763 154.595 234.482C157.696 231.278 159.145 227.458 158.996 223.214C158.931 221.453 157.926 218.964 156.565 218.176C154.316 216.885 144.756 220.487 143.411 222.859C140.306 228.311 137.447 233.902 134.586 239.484C134.158 240.314 134.242 241.414 134.037 242.749C138.844 237.748 143.267 233.139 147.693 228.541ZM65.019 23.3772C66.3608 30.6062 67.712 37.832 69.0538 45.0611C70.4792 41.9872 71.383 38.9936 72.2266 35.9779C74.4158 28.1747 74.7897 20.3376 72.5546 12.4593C71.8532 9.9943 69.8814 9.27472 67.8325 9.39333C61.8787 9.72656 57.7253 14.603 57.967 20.6297C58.2322 27.2288 61.4117 34.6528 66.519 40.1844C65.9078 34.3451 62.727 29.1157 65.0221 23.3867L65.019 23.3772ZM81.6246 129.683C83.2121 128.316 84.5376 127.207 85.8283 126.056C90.6124 121.769 95.5201 117.599 100.114 113.123C102.808 110.499 105.221 107.505 107.326 104.382C108.136 103.182 108.367 100.762 107.675 99.6124C107.002 98.4882 104.714 97.548 103.32 97.7631C97.7844 98.6203 92.7746 101.01 89.918 106.01C87.0708 110.975 84.9203 116.35 82.17 122.168C85.7516 118.887 88.7683 116.122 91.7945 113.355C92.0417 113.588 92.2889 113.822 92.5424 114.042C92.2496 114.584 92.0613 115.217 91.6544 115.638C88.9098 118.491 86.0924 121.283 83.3478 124.136C81.9503 125.597 80.5435 127.124 81.6246 129.683ZM71.6636 80.811C71.9456 81.0222 72.2275 81.2334 72.5 81.4478C74.5426 80.0232 76.7407 78.7785 78.5963 77.1424C83.8098 72.564 89.0485 67.9665 93.9513 63.0598C96.2102 60.803 96.3416 54.7564 94.5554 53.5842C90.6313 51.0098 87.7927 50.1278 83.998 54.2191C82.6984 55.6262 81.2628 57.0367 80.4034 58.7179C78.0582 63.3245 75.9916 68.0696 73.8206 72.7548C74.0675 72.8617 74.3176 72.9781 74.5739 73.0819C76.9042 70.2209 79.2408 67.3473 81.5711 64.4864C81.8625 64.6944 82.1539 64.9024 82.4453 65.1105C78.8556 70.3461 75.2628 75.5722 71.6636 80.811ZM65.2203 78.7136C63.6779 74.9382 62.4859 70.9502 60.4823 67.4352C58.2247 63.4781 56.475 58.9917 52.0549 56.5734C49.6105 55.2319 46.4063 54.8947 45.8281 56.4708C44.1595 61.0189 43.8316 65.507 46.6403 69.8486C50.3631 75.6238 56.6186 77.2251 62.2033 79.9697C62.402 79.7447 62.6133 79.526 62.812 79.301C59.0264 75.0344 55.247 70.7551 51.4613 66.4885C51.8557 66.1239 52.2628 65.7657 52.6572 65.4011C57.1509 69.4826 61.2249 73.9794 65.2267 78.7325L65.2203 78.7136Z" stroke="#424141" stroke-miterlimit="10"/>
</svg>
