<svg width="215" height="210" viewBox="0 0 215 210" fill="none" xmlns="http://www.w3.org/2000/svg">
<path d="M211.699 4.00278C175.138 4.23324 138.577 3.29494 102.065 1.61587C91.7933 1.13848 81.5377 0.595254 71.2822 0.0191016C69.7348 -0.0632059 68.4179 1.68171 68.8953 3.14679C73.0107 15.5258 69.6196 28.8432 62.0967 39.1975C54.0964 50.2431 41.5528 56.7619 28.3507 59.2969C20.6796 60.7785 12.6629 60.9266 4.92595 59.8731C3.74072 59.7085 2.09458 60.1365 1.88058 61.6016C0.810579 69.4701 0.645964 77.454 0.547195 85.3884C0.415503 96.1871 0.580118 106.986 0.82704 117.785C1.32089 139.991 2.29211 162.165 2.73657 184.371C2.88473 191.878 3.23042 199.499 2.5555 206.989C2.27565 210.15 7.2141 210.134 7.49394 206.989C8.0701 200.635 7.8561 194.182 7.74087 187.828C7.57625 177.737 7.24702 167.63 6.91779 157.539C6.19349 134.921 5.33749 112.286 5.43626 89.6684C5.45272 84.5489 5.53503 79.4294 5.76549 74.3098C5.86426 72.2028 5.97949 70.1121 6.1441 68.0051C6.22641 67.0338 6.30872 66.0626 6.40749 65.0914C6.45687 64.6469 6.50626 64.2025 6.55564 63.758C6.5721 63.544 6.70379 62.5892 6.65441 62.902L3.60903 64.6305C18.5725 66.6552 34.2439 64.8609 47.7258 57.7989C60.5164 51.0991 70.5415 39.2139 74.2124 25.1558C76.2042 17.5012 76.1548 9.36923 73.6527 1.82987L71.2658 4.95755C107.761 7.0317 144.305 8.48031 180.866 8.87539C191.138 8.99062 201.41 9.00708 211.682 8.94123C214.859 8.92477 214.859 3.98632 211.682 4.00278H211.699Z" fill="white"/>
</svg>
