<svg xmlns="http://www.w3.org/2000/svg" xmlns:xlink="http://www.w3.org/1999/xlink" viewBox="0 0 430 430" width="430" height="430" preserveAspectRatio="xMidYMid meet" style="width: 100%; height: 100%; transform: translate3d(0px, 0px, 0px); content-visibility: visible;"><defs><clipPath id="__lottie_element_67"><rect width="430" height="430" x="0" y="0"/></clipPath><clipPath id="__lottie_element_69"><path d="M0,0 L430,0 L430,430 L0,430z"/></clipPath><filter id="__lottie_element_75" x="-100%" y="-100%" width="300%" height="300%"><feGaussianBlur result="filter_result_0" stdDeviation="52.5 52.5" edgeMode="wrap"/></filter><g id="__lottie_element_76"><g clip-path="url(#__lottie_element_77)" transform="matrix(1,0,0,1,0,0)" opacity="1" style="display: block;"><g transform="matrix(1,0,0,1,235,287)" opacity="1" style="display: block;"><g opacity="1" transform="matrix(1,0,0,1,0,0)"/><g opacity="1" transform="matrix(1,0,0,1,0,0)"><path stroke-linecap="round" stroke-linejoin="round" fill-opacity="0" class="secondary" stroke="rgb(8,168,138)" stroke-opacity="1" stroke-width="12.6" d="M0 0"/></g></g><g transform="matrix(-1,0,0,1,198,287)" opacity="1" style="display: block;"><g opacity="1" transform="matrix(1,0,0,1,0,0)"/><g opacity="1" transform="matrix(1,0,0,1,0,0)"><path stroke-linecap="round" stroke-linejoin="round" fill-opacity="0" class="secondary" stroke="rgb(8,168,138)" stroke-opacity="1" stroke-width="12.6" d="M0 0"/></g></g><g mask="url(#__lottie_element_83_2)" style="display: block;"><g transform="matrix(1,0,0,1,215,213.35076904296875)" opacity="1"><g opacity="1" transform="matrix(1,0,0,1,0,0)"><path stroke-linecap="round" stroke-linejoin="round" fill-opacity="0" class="primary" stroke="rgb(18,19,49)" stroke-opacity="1" stroke-width="12.6" d=" M0,-20.24799919128418 C28.29599952697754,-20.24799919128418 49.577999114990234,-10.847999572753906 60.04499816894531,-5.334000110626221 C60.04499816894531,-5.334000110626221 0,160.33399963378906 0,160.33399963378906 C0,160.33399963378906 -60.04499816894531,-5.334000110626221 -60.04499816894531,-5.334000110626221 C-49.577999114990234,-10.847999572753906 -28.29599952697754,-20.24799919128418 0,-20.24799919128418z"/></g><g opacity="1" transform="matrix(1,0,0,1,0,0)"><path stroke-linecap="round" stroke-linejoin="round" fill-opacity="0" class="primary" stroke="rgb(18,19,49)" stroke-opacity="1" stroke-width="12.6" d=" M-60.04499816894531,-5.334000110626221 C-60.04499816894531,-5.334000110626221 -3.0390000343322754,37.32699966430664 60.04499816894531,-5.334000110626221"/></g></g></g><g mask="url(#__lottie_element_90_2)" style="display: block;"><g clip-path="url(#__lottie_element_87)" transform="matrix(1,0,0,1,0,0)" opacity="1"><g mask="url(#__lottie_element_106_1)" style="display: block;"><g transform="matrix(1,0,0,1,94,328.35076904296875)" opacity="1"><g opacity="1" transform="matrix(1,0,0,1,0,0)"><path stroke-linecap="round" stroke-linejoin="round" fill-opacity="0" class="primary" stroke="rgb(18,19,49)" stroke-opacity="1" stroke-width="12.6" d=" M-112.75,-38.340999603271484 C-112.75,-38.340999603271484 77.5,151.90899658203125 77.5,151.90899658203125 M-52.25,-95.84100341796875 C-52.25,-95.84100341796875 138,94.40899658203125 138,94.40899658203125 M-52.125,-96.84100341796875 C-52.125,-96.84100341796875 138.125,93.40899658203125 138.125,93.40899658203125 M5.75,-155.84100341796875 C5.75,-155.84100341796875 196,34.409000396728516 196,34.409000396728516 M34.875,-185.84100341796875 C34.875,-185.84100341796875 225.125,4.408999919891357 225.125,4.408999919891357"/></g></g></g></g></g><g mask="url(#__lottie_element_96_2)" style="display: block;"><g transform="matrix(0.9788601398468018,0,0,1.0295957326889038,214.9641876220703,212.75888061523438)" opacity="1"><g opacity="1" transform="matrix(1,0,0,1,0,0)"><path stroke-linecap="round" stroke-linejoin="round" fill-opacity="0" class="secondary" stroke="rgb(8,168,138)" stroke-opacity="1" stroke-width="12.6" d=" M-26.81100082397461,6.513000011444092 C-32.19200134277344,14.53600025177002 -41.3380012512207,19.812000274658203 -51.71900177001953,19.812000274658203 C-68.25900268554688,19.812000274658203 -81.6780014038086,6.401000022888184 -81.6780014038086,-10.147000312805176 C-81.6780014038086,-23.573999404907227 -72.83200073242188,-34.94300079345703 -60.654998779296875,-38.75199890136719 C-61.34400177001953,-42.374000549316406 -61.70199966430664,-46.10900115966797 -61.70199966430664,-49.92599868774414 C-61.70199966430664,-83.02100372314453 -34.87900161743164,-109.84500122070312 -1.784000039100647,-109.84500122070312 C31.31100082397461,-109.84500122070312 58.1349983215332,-83.02100372314453 58.1349983215332,-49.92599868774414 C58.1349983215332,-46.06399917602539 57.76900100708008,-42.28499984741211 57.064998626708984,-38.625 C69.34700012207031,-34.88999938964844 78.29000091552734,-23.4689998626709 78.29000091552734,-9.960000038146973 C78.29000091552734,6.5879998207092285 64.87100219726562,19.999000549316406 48.33100128173828,19.999000549316406 C37.85300064086914,19.999000549316406 28.632999420166016,14.625 23.27400016784668,6.474999904632568 C17.915000915527344,14.625 8.694000244140625,19.999000549316406 -1.784000039100647,19.999000549316406 C-12.246999740600586,19.999000549316406 -21.45199966430664,14.640999794006348 -26.81100082397461,6.513000011444092"/></g></g></g><g transform="matrix(0.9711330533027649,0,0,1.040413737297058,214.9510955810547,214.5604705810547)" opacity="1" style="display: block;"><g opacity="1" transform="matrix(1,0,0,1,0,0)"><path stroke-linecap="round" stroke-linejoin="round" fill-opacity="0" class="primary" stroke="rgb(18,19,49)" stroke-opacity="1" stroke-width="12.6" d=" M-26.81100082397461,-43.41899871826172 C-32.19200134277344,-35.395999908447266 -41.3380012512207,-30.1200008392334 -51.71900177001953,-30.1200008392334 C-68.25900268554688,-30.1200008392334 -81.6780014038086,-43.53099822998047 -81.6780014038086,-60.07899856567383 C-81.6780014038086,-73.50599670410156 -72.83200073242188,-84.875 -60.654998779296875,-88.68399810791016 C-61.34400177001953,-92.30599975585938 -61.70199966430664,-96.04100036621094 -61.70199966430664,-99.85800170898438 C-61.70199966430664,-132.9530029296875 -34.87900161743164,-159.77699279785156 -1.784000039100647,-159.77699279785156 C31.31100082397461,-159.77699279785156 58.1349983215332,-132.9530029296875 58.1349983215332,-99.85800170898438 C58.1349983215332,-95.99600219726562 57.76900100708008,-92.21700286865234 57.064998626708984,-88.55699920654297 C69.34700012207031,-84.8219985961914 78.29000091552734,-73.4010009765625 78.29000091552734,-59.891998291015625 C78.29000091552734,-43.34400177001953 64.87100219726562,-29.933000564575195 48.33100128173828,-29.933000564575195 C37.85300064086914,-29.933000564575195 28.632999420166016,-35.30699920654297 23.27400016784668,-43.457000732421875 C17.915000915527344,-35.30699920654297 8.694000244140625,-29.933000564575195 -1.784000039100647,-29.933000564575195 C-12.246999740600586,-29.933000564575195 -21.45199966430664,-35.29100036621094 -26.81100082397461,-43.41899871826172"/></g><g opacity="1" transform="matrix(1,0,0,1,0,0)"><path stroke-linecap="round" stroke-linejoin="round" fill-opacity="0" class="primary" stroke="rgb(18,19,49)" stroke-opacity="1" stroke-width="12.6" d=" M-12.461000442504883,-129.4250030517578 C-14.66100025177002,-128.71499633789062 -19.687999725341797,-126.75499725341797 -23.75,-121.75 C-29.570999145507812,-114.5790023803711 -29.14900016784668,-106.40799713134766 -29,-104.5"/></g></g></g></g><clipPath id="__lottie_element_77"><path d="M0,0 L430,0 L430,430 L0,430z"/></clipPath><mask id="__lottie_element_76_1" mask-type="alpha"><use xmlns:ns1="http://www.w3.org/1999/xlink" ns1:href="#__lottie_element_76"/></mask><g id="__lottie_element_83"><g transform="matrix(0.9788601398468018,0,0,1.0295957326889038,214.9641876220703,212.75888061523438)" opacity="1" style="display: block;"><g opacity="1" transform="matrix(1,0,0,1,0,0)"><path fill="rgb(255,0,0)" fill-opacity="1" d=" M-26.81100082397461,6.513000011444092 C-32.19200134277344,14.53600025177002 -41.3380012512207,19.812000274658203 -51.71900177001953,19.812000274658203 C-68.25900268554688,19.812000274658203 -81.6780014038086,6.401000022888184 -81.6780014038086,-10.147000312805176 C-81.6780014038086,-23.573999404907227 -72.83200073242188,-34.94300079345703 -60.654998779296875,-38.75199890136719 C-61.34400177001953,-42.374000549316406 -61.70199966430664,-46.10900115966797 -61.70199966430664,-49.92599868774414 C-61.70199966430664,-83.02100372314453 -34.87900161743164,-109.84500122070312 -1.784000039100647,-109.84500122070312 C31.31100082397461,-109.84500122070312 58.1349983215332,-83.02100372314453 58.1349983215332,-49.92599868774414 C58.1349983215332,-46.06399917602539 57.76900100708008,-42.28499984741211 57.064998626708984,-38.625 C69.34700012207031,-34.88999938964844 78.29000091552734,-23.4689998626709 78.29000091552734,-9.960000038146973 C78.29000091552734,6.5879998207092285 64.87100219726562,19.999000549316406 48.33100128173828,19.999000549316406 C37.85300064086914,19.999000549316406 28.632999420166016,14.625 23.27400016784668,6.474999904632568 C17.915000915527344,14.625 8.694000244140625,19.999000549316406 -1.784000039100647,19.999000549316406 C-12.246999740600586,19.999000549316406 -21.45199966430664,14.640999794006348 -26.81100082397461,6.513000011444092"/></g></g></g><clipPath id="__lottie_element_87"><path d="M0,0 L430,0 L430,430 L0,430z"/></clipPath><g id="__lottie_element_90"><g transform="matrix(0.9788601398468018,0,0,1.0295957326889038,214.9641876220703,212.75888061523438)" opacity="1" style="display: block;"><g opacity="1" transform="matrix(1,0,0,1,0,0)"><path fill="rgb(255,0,0)" fill-opacity="1" d=" M-26.81100082397461,6.513000011444092 C-32.19200134277344,14.53600025177002 -41.3380012512207,19.812000274658203 -51.71900177001953,19.812000274658203 C-68.25900268554688,19.812000274658203 -81.6780014038086,6.401000022888184 -81.6780014038086,-10.147000312805176 C-81.6780014038086,-23.573999404907227 -72.83200073242188,-34.94300079345703 -60.654998779296875,-38.75199890136719 C-61.34400177001953,-42.374000549316406 -61.70199966430664,-46.10900115966797 -61.70199966430664,-49.92599868774414 C-61.70199966430664,-83.02100372314453 -34.87900161743164,-109.84500122070312 -1.784000039100647,-109.84500122070312 C31.31100082397461,-109.84500122070312 58.1349983215332,-83.02100372314453 58.1349983215332,-49.92599868774414 C58.1349983215332,-46.06399917602539 57.76900100708008,-42.28499984741211 57.064998626708984,-38.625 C69.34700012207031,-34.88999938964844 78.29000091552734,-23.4689998626709 78.29000091552734,-9.960000038146973 C78.29000091552734,6.5879998207092285 64.87100219726562,19.999000549316406 48.33100128173828,19.999000549316406 C37.85300064086914,19.999000549316406 28.632999420166016,14.625 23.27400016784668,6.474999904632568 C17.915000915527344,14.625 8.694000244140625,19.999000549316406 -1.784000039100647,19.999000549316406 C-12.246999740600586,19.999000549316406 -21.45199966430664,14.640999794006348 -26.81100082397461,6.513000011444092"/></g></g></g><g id="__lottie_element_96"><g transform="matrix(0.9711330533027649,0,0,1.040413737297058,214.9510955810547,214.5604705810547)" opacity="1" style="display: block;"><path fill="rgb(255,0,0)" fill-opacity="1" d=" M-26.81100082397461,-43.41899871826172 C-32.19200134277344,-35.395999908447266 -41.3380012512207,-30.1200008392334 -51.71900177001953,-30.1200008392334 C-68.25900268554688,-30.1200008392334 -81.6780014038086,-43.53099822998047 -81.6780014038086,-60.07899856567383 C-81.6780014038086,-73.50599670410156 -72.83200073242188,-84.875 -60.654998779296875,-88.68399810791016 C-61.34400177001953,-92.30599975585938 -61.70199966430664,-96.04100036621094 -61.70199966430664,-99.85800170898438 C-61.70199966430664,-132.9530029296875 -34.87900161743164,-159.77699279785156 -1.784000039100647,-159.77699279785156 C31.31100082397461,-159.77699279785156 58.1349983215332,-132.9530029296875 58.1349983215332,-99.85800170898438 C58.1349983215332,-95.99600219726562 57.76900100708008,-92.21700286865234 57.064998626708984,-88.55699920654297 C69.34700012207031,-84.8219985961914 78.29000091552734,-73.4010009765625 78.29000091552734,-59.891998291015625 C78.29000091552734,-43.34400177001953 64.87100219726562,-29.933000564575195 48.33100128173828,-29.933000564575195 C37.85300064086914,-29.933000564575195 28.632999420166016,-35.30699920654297 23.27400016784668,-43.457000732421875 C17.915000915527344,-35.30699920654297 8.694000244140625,-29.933000564575195 -1.784000039100647,-29.933000564575195 C-12.246999740600586,-29.933000564575195 -21.45199966430664,-35.29100036621094 -26.81100082397461,-43.41899871826172 M-12.461000442504883,-129.4250030517578 C-14.66100025177002,-128.71499633789062 -19.687999725341797,-126.75499725341797 -23.75,-121.75 C-29.570999145507812,-114.5790023803711 -29.14900016784668,-106.40799713134766 -29,-104.5"/><g opacity="1" transform="matrix(1,0,0,1,0,0)"><path stroke-linecap="round" stroke-linejoin="round" fill-opacity="0" class="primary" stroke="rgb(18,19,49)" stroke-opacity="1" stroke-width="0" d=" M-26.81100082397461,-43.41899871826172 C-32.19200134277344,-35.395999908447266 -41.3380012512207,-30.1200008392334 -51.71900177001953,-30.1200008392334 C-68.25900268554688,-30.1200008392334 -81.6780014038086,-43.53099822998047 -81.6780014038086,-60.07899856567383 C-81.6780014038086,-73.50599670410156 -72.83200073242188,-84.875 -60.654998779296875,-88.68399810791016 C-61.34400177001953,-92.30599975585938 -61.70199966430664,-96.04100036621094 -61.70199966430664,-99.85800170898438 C-61.70199966430664,-132.9530029296875 -34.87900161743164,-159.77699279785156 -1.784000039100647,-159.77699279785156 C31.31100082397461,-159.77699279785156 58.1349983215332,-132.9530029296875 58.1349983215332,-99.85800170898438 C58.1349983215332,-95.99600219726562 57.76900100708008,-92.21700286865234 57.064998626708984,-88.55699920654297 C69.34700012207031,-84.8219985961914 78.29000091552734,-73.4010009765625 78.29000091552734,-59.891998291015625 C78.29000091552734,-43.34400177001953 64.87100219726562,-29.933000564575195 48.33100128173828,-29.933000564575195 C37.85300064086914,-29.933000564575195 28.632999420166016,-35.30699920654297 23.27400016784668,-43.457000732421875 C17.915000915527344,-35.30699920654297 8.694000244140625,-29.933000564575195 -1.784000039100647,-29.933000564575195 C-12.246999740600586,-29.933000564575195 -21.45199966430664,-35.29100036621094 -26.81100082397461,-43.41899871826172"/></g><g opacity="1" transform="matrix(1,0,0,1,0,0)"><path stroke-linecap="round" stroke-linejoin="round" fill-opacity="0" class="primary" stroke="rgb(18,19,49)" stroke-opacity="1" stroke-width="0" d=" M-12.461000442504883,-129.4250030517578 C-14.66100025177002,-128.71499633789062 -19.687999725341797,-126.75499725341797 -23.75,-121.75 C-29.570999145507812,-114.5790023803711 -29.14900016784668,-106.40799713134766 -29,-104.5"/></g></g></g><filter id="__lottie_element_102" filterUnits="objectBoundingBox" x="0%" y="0%" width="100%" height="100%"><feComponentTransfer in="SourceGraphic"><feFuncA type="table" tableValues="1.0 0.0"/></feComponentTransfer></filter><mask id="__lottie_element_96_2" mask-type="alpha"><g filter="url(#__lottie_element_102)"><rect width="430" height="430" x="0" y="0" fill="#ffffff" opacity="0"/><use xmlns:ns2="http://www.w3.org/1999/xlink" ns2:href="#__lottie_element_96"/></g></mask><filter id="__lottie_element_103" filterUnits="objectBoundingBox" x="0%" y="0%" width="100%" height="100%"><feComponentTransfer in="SourceGraphic"><feFuncA type="table" tableValues="1.0 0.0"/></feComponentTransfer></filter><mask id="__lottie_element_90_2" mask-type="alpha"><g filter="url(#__lottie_element_103)"><rect width="430" height="430" x="0" y="0" fill="#ffffff" opacity="0"/><use xmlns:ns3="http://www.w3.org/1999/xlink" ns3:href="#__lottie_element_90"/></g></mask><filter id="__lottie_element_104" filterUnits="objectBoundingBox" x="0%" y="0%" width="100%" height="100%"><feComponentTransfer in="SourceGraphic"><feFuncA type="table" tableValues="1.0 0.0"/></feComponentTransfer></filter><mask id="__lottie_element_83_2" mask-type="alpha"><g filter="url(#__lottie_element_104)"><rect width="430" height="430" x="0" y="0" fill="#ffffff" opacity="0"/><use xmlns:ns4="http://www.w3.org/1999/xlink" ns4:href="#__lottie_element_83"/></g></mask><g id="__lottie_element_106"><g transform="matrix(1,0,0,1,215,213.35076904296875)" opacity="1" style="display: block;"><g opacity="1" transform="matrix(1,0,0,1,0,0)"><path fill="rgb(255,0,0)" fill-opacity="1" d=" M0,14.001999855041504 C28.29599952697754,14.001999855041504 49.625,1.034000039100647 60.04499816894531,-5.334000110626221 C60.04499816894531,-5.334000110626221 0,160.33399963378906 0,160.33399963378906 C0,160.33399963378906 -60.04499816894531,-5.334000110626221 -60.04499816894531,-5.334000110626221 C-53,-0.7160000205039978 -28.29599952697754,14.001999855041504 0,14.001999855041504z"/></g></g></g><mask id="__lottie_element_106_1" mask-type="alpha"><use xmlns:ns5="http://www.w3.org/1999/xlink" ns5:href="#__lottie_element_106"/></mask></defs><g clip-path="url(#__lottie_element_67)"><g clip-path="url(#__lottie_element_69)" transform="matrix(1,0,0,1,0,0)" opacity="1" style="display: block;"><g mask="url(#__lottie_element_76_1)" style="display: block;"><g filter="url(#__lottie_element_75)" transform="matrix(-0.38403862714767456,-2.369074583053589,2.369074583053589,-0.38403862714767456,271.9410095214844,220.4600067138672)" opacity="1"><g class="design" opacity="1" transform="matrix(1,0,0,1,0,0)"><path class="primary" fill="rgb(75,225,236)" fill-opacity="1" d=" M0,-250 C137.97500610351562,-250 250,-137.97500610351562 250,0 C250,137.97500610351562 137.97500610351562,250 0,250 C-137.97500610351562,250 -250,137.97500610351562 -250,0 C-250,-137.97500610351562 -137.97500610351562,-250 0,-250z"/></g><g class="design" opacity="1" transform="matrix(1,0,0,1,113.24199676513672,-118.88400268554688)"><path class="secondary" fill="rgb(203,94,238)" fill-opacity="1" d=" M0,-176.5 C97.47799682617188,-176.5 176.5,-97.47799682617188 176.5,0 C176.5,97.47799682617188 97.47799682617188,176.5 0,176.5 C-43.948001861572266,176.5 -74.39600372314453,142.4429931640625 -105.29000091552734,115.86900329589844 C-142.92100524902344,83.5 -176.5,53.53099822998047 -176.5,0 C-176.5,-97.47799682617188 -97.47799682617188,-176.5 0,-176.5z"/></g></g></g></g></g></svg>