<svg width="133" height="20" viewBox="0 0 133 20" fill="none" xmlns="http://www.w3.org/2000/svg">
<path d="M9.04894 2.92705C9.3483 2.00574 10.6517 2.00574 10.9511 2.92705L12.0206 6.21885C12.1545 6.63087 12.5385 6.90983 12.9717 6.90983H16.4329C17.4016 6.90983 17.8044 8.14945 17.0207 8.71885L14.2205 10.7533C13.87 11.0079 13.7234 11.4593 13.8572 11.8713L14.9268 15.1631C15.2261 16.0844 14.1717 16.8506 13.388 16.2812L10.5878 14.2467C10.2373 13.9921 9.7627 13.9921 9.41221 14.2467L6.61204 16.2812C5.82833 16.8506 4.77385 16.0844 5.0732 15.1631L6.14277 11.8713C6.27665 11.4593 6.12999 11.0079 5.7795 10.7533L2.97933 8.71885C2.19562 8.14945 2.59839 6.90983 3.56712 6.90983H7.02832C7.46154 6.90983 7.8455 6.63087 7.97937 6.21885L9.04894 2.92705Z" fill="#E2790C"/>
<path d="M37.5536 2.77413C37.8616 1.87132 39.1384 1.87131 39.4464 2.77412L40.6264 6.23272C40.7645 6.63765 41.145 6.90983 41.5728 6.90983H45.2834C46.2639 6.90983 46.6588 8.17425 45.8525 8.73216L42.9358 10.7503C42.5681 11.0048 42.414 11.4724 42.5584 11.8956L43.692 15.2184C44.0034 16.1312 42.9697 16.9124 42.1766 16.3636L39.069 14.2134C38.7267 13.9765 38.2733 13.9765 37.931 14.2134L34.8234 16.3636C34.0303 16.9124 32.9966 16.1312 33.308 15.2184L34.4416 11.8956C34.586 11.4724 34.4319 11.0048 34.0642 10.7503L31.1475 8.73216C30.3413 8.17425 30.7361 6.90983 31.7166 6.90983H35.4272C35.855 6.90983 36.2355 6.63765 36.3736 6.23272L37.5536 2.77413Z" fill="#E2790C"/>
<path d="M65.5536 2.77413C65.8616 1.87132 67.1384 1.87131 67.4464 2.77412L68.6264 6.23272C68.7645 6.63765 69.145 6.90983 69.5728 6.90983H73.2834C74.2639 6.90983 74.6588 8.17425 73.8525 8.73216L70.9358 10.7503C70.5681 11.0048 70.414 11.4724 70.5584 11.8956L71.692 15.2184C72.0034 16.1312 70.9697 16.9124 70.1766 16.3636L67.069 14.2134C66.7267 13.9765 66.2733 13.9765 65.931 14.2134L62.8234 16.3636C62.0303 16.9124 60.9966 16.1312 61.308 15.2184L62.4416 11.8956C62.586 11.4724 62.4319 11.0048 62.0642 10.7503L59.1475 8.73216C58.3413 8.17425 58.7361 6.90983 59.7166 6.90983H63.4272C63.855 6.90983 64.2355 6.63765 64.3736 6.23272L65.5536 2.77413Z" fill="#E2790C"/>
<path d="M93.5536 2.77413C93.8616 1.87132 95.1384 1.87131 95.4464 2.77412L96.6264 6.23272C96.7645 6.63765 97.145 6.90983 97.5728 6.90983H101.283C102.264 6.90983 102.659 8.17425 101.852 8.73216L98.9358 10.7503C98.5681 11.0048 98.414 11.4724 98.5584 11.8956L99.692 15.2184C100.003 16.1312 98.9697 16.9124 98.1766 16.3636L95.069 14.2134C94.7267 13.9765 94.2733 13.9765 93.931 14.2134L90.8234 16.3636C90.0303 16.9124 88.9966 16.1312 89.308 15.2184L90.4416 11.8956C90.586 11.4724 90.4319 11.0048 90.0642 10.7503L87.1475 8.73216C86.3413 8.17425 86.7361 6.90983 87.7166 6.90983H91.4272C91.855 6.90983 92.2355 6.63765 92.3736 6.23272L93.5536 2.77413Z" fill="#E2790C"/>
<path d="M122.049 2.92705C122.348 2.00574 123.652 2.00574 123.951 2.92705L125.021 6.21885C125.155 6.63087 125.538 6.90983 125.972 6.90983H129.433C130.402 6.90983 130.804 8.14945 130.021 8.71885L127.22 10.7533C126.87 11.0079 126.723 11.4593 126.857 11.8713L127.927 15.1631C128.226 16.0844 127.172 16.8506 126.388 16.2812L123.588 14.2467C123.237 13.9921 122.763 13.9921 122.412 14.2467L119.612 16.2812C118.828 16.8506 117.774 16.0844 118.073 15.1631L119.143 11.8713C119.277 11.4593 119.13 11.0079 118.78 10.7533L115.979 8.71885C115.196 8.14945 115.598 6.90983 116.567 6.90983H120.028C120.462 6.90983 120.845 6.63087 120.979 6.21885L122.049 2.92705Z" fill="#CFCDCB"/>
</svg>
