<svg width="129" height="167" viewBox="0 0 129 167" fill="none" xmlns="http://www.w3.org/2000/svg">
<path d="M98.5607 123.834C94.7289 135.629 83.5508 142.918 72.9181 148.083C67.0388 150.949 60.8262 153.159 54.311 154.015C50.7568 154.488 40.9304 155.588 39.6855 150.621C38.8712 147.402 42.4388 143.502 44.4433 141.468C47.4475 138.449 50.8507 136.409 54.744 134.744C63.9529 130.8 74.1757 129.235 84.1317 128.506C89.8694 128.087 95.7193 127.97 101.463 128.363C105.792 128.67 106.305 121.944 101.976 121.636C95.6272 121.197 89.1823 121.427 82.8324 121.89C71.357 122.728 59.4978 124.755 49.091 129.915C41.5894 133.65 30.6728 142.83 33.1657 152.424C34.8202 158.82 42.1495 160.89 47.9324 161.061C55.6952 161.292 63.3257 159.416 70.4898 156.558C84.563 150.933 99.9772 141.33 104.878 126.165C106.208 122.027 99.8655 119.739 98.5349 123.877L98.5607 123.834Z" fill="white"/>
<path d="M108.379 96.5282C95.7574 84.0185 79.6975 75.7795 62.581 71.3388C54.9067 69.355 47.0484 68.0112 39.1611 67.3417C31.9689 66.7253 23.8591 66.0164 16.7874 67.6644C11.4141 68.9232 6.20441 72.4724 6.79462 78.629C7.30675 84.0355 11.6259 87.7253 15.7531 90.6788C28.3038 99.6875 44.2367 103.384 59.3939 104.834C74.5511 106.283 91.3006 105.78 106.517 102.024C110.722 100.992 109.447 94.3545 105.217 95.4074C93.4949 98.3018 81.1883 99.0993 69.1309 98.6981C55.1385 98.2394 40.826 96.0648 28.0667 90.0848C23.4726 87.9301 17.3706 84.8485 14.4791 80.4782C13.8318 79.5042 13.341 77.9558 13.5078 77.2469C13.5715 77.0036 13.7919 76.4792 14.0625 76.1841C14.7743 75.4266 15.8019 74.9637 16.752 74.6303C22.6129 72.5967 30.057 73.4579 36.1608 73.8559C43.0942 74.3173 50.0365 75.2529 56.7964 76.8061C74.0403 80.7603 90.6241 88.3402 103.31 100.9C106.371 103.93 111.508 99.5634 108.426 96.5092L108.379 96.5282Z" fill="white"/>
<path d="M121.789 72.4057C116.319 67.8387 110.778 63.3115 105.131 59.0016C101.124 55.9446 96.9368 53.1895 93.4025 49.5595C89.3452 45.3936 85.9189 40.6443 83.339 35.4408C80.7591 30.2374 79.2192 25.0006 78.6535 19.4096C78.4278 17.047 77.5018 11.7443 81.0429 12.3302C85.1411 13.0037 89.186 16.7402 92.0455 19.4617C96.1647 23.4069 99.5565 28.0182 102.122 33.1078C105.336 39.4646 107.443 46.4361 109.634 53.1885C112.06 60.703 114.324 68.2728 116.565 75.841C117.784 79.9708 124.42 78.718 123.182 74.5416C120.941 66.9735 118.677 59.4037 116.25 51.8891C113.97 44.8367 111.816 37.5911 108.582 30.9169C105.738 25.0393 101.892 19.5815 97.1857 15.0503C93.4668 11.4739 89.127 7.75999 84.128 6.1833C79.8327 4.84074 75.1559 5.54385 73.0407 9.91544C70.5001 15.1341 71.9465 22.4837 73.364 27.8465C76.7039 40.5275 84.6048 51.9554 95.0042 59.8978C102.762 65.812 110.499 71.7021 117.983 77.9562C121.311 80.736 125.119 75.163 121.811 72.4074L121.789 72.4057Z" fill="white"/>
</svg>
