<svg width="80" height="104" viewBox="0 0 80 104" fill="none" xmlns="http://www.w3.org/2000/svg">
<path d="M15.4752 73.8451C16.713 81.4288 22.8734 86.943 28.8994 91.1055C32.2304 93.4137 35.8273 95.3508 39.7367 96.4875C41.8689 97.1113 47.7832 98.7083 49.0124 95.784C49.8137 93.8889 47.9955 91.1653 46.9591 89.7309C45.4031 87.6001 43.5108 86.0305 41.2831 84.6449C36.0141 81.3645 29.9009 79.4449 23.8723 78.0628C20.398 77.2667 16.8265 76.6449 13.2723 76.3458C10.5923 76.1273 10.9103 71.9598 13.5903 72.1782C17.5196 72.506 21.4448 73.2526 25.29 74.1328C32.2387 75.7249 39.3107 78.0809 45.1988 82.219C49.4418 85.2115 55.2641 91.8596 52.8356 97.5009C51.2213 101.262 46.5382 101.841 42.9807 101.402C38.205 100.814 33.7085 98.9478 29.5898 96.5237C21.5001 91.7566 12.9632 84.4263 11.3875 74.6789C10.9616 72.0196 15.0611 71.2146 15.487 73.8739L15.4752 73.8451Z" fill="white"/>
<path d="M12.0291 56.2002C20.9346 49.7256 31.5442 46.1896 42.4437 45.0791C47.3299 44.5856 52.2687 44.5013 57.1618 44.8327C61.6242 45.1313 66.6573 45.4594 70.8331 47.1334C74.0054 48.4094 76.8622 51.0726 75.922 54.7874C75.1002 58.0502 72.1084 59.9038 69.3032 61.3246C60.7704 65.6618 50.6656 66.4278 41.2471 65.8909C31.8286 65.3539 21.6185 63.471 12.6532 59.7409C10.1746 58.7135 11.5794 54.7686 14.0708 55.811C20.9776 58.6854 28.4392 60.3306 35.8608 61.2182C44.4729 62.2526 53.4423 62.2662 61.8182 59.8034C64.8341 58.9157 68.8607 57.6021 71.0422 55.1976C71.5302 54.6619 71.9763 53.7598 71.9408 53.3099C71.9247 53.155 71.839 52.8131 71.701 52.607C71.3363 52.0761 70.7505 51.6961 70.2 51.4026C66.802 49.6063 62.1622 49.434 58.3868 49.104C54.0975 48.7348 49.758 48.6552 45.4723 48.971C34.5405 49.7717 23.672 52.8548 14.7227 59.3539C12.5631 60.9217 9.82778 57.7648 12.0024 56.1842L12.0291 56.2002Z" fill="white"/>
<path d="M6.08421 40.1671C9.86332 37.8844 13.682 35.6328 17.5456 33.5243C20.2866 32.0287 23.1099 30.7351 25.6156 28.8444C28.4918 26.6745 31.0366 24.0881 33.1056 21.144C35.1746 18.2 36.6099 15.1377 37.4819 11.7669C37.8422 10.3413 38.9077 7.18091 36.6841 7.20687C34.111 7.23411 31.2827 9.14216 29.2757 10.54C26.3823 12.5688 23.8717 15.074 21.8219 17.9497C19.2564 21.5405 17.311 25.6118 15.3344 29.541C13.1424 33.9149 11.0443 38.3378 8.96022 42.7619C7.82585 45.1764 3.87991 43.7855 5.03029 41.3442C7.11442 36.9202 9.21244 32.4972 11.4045 28.1234C13.4643 24.0189 15.4641 19.784 18.0722 16.0008C20.3664 12.6687 23.2347 9.68784 26.5426 7.35528C29.1562 5.51469 32.163 3.6482 35.3726 3.15254C38.1292 2.7341 40.9272 3.60429 41.8116 6.48028C42.8769 9.915 41.3003 14.2799 39.9281 17.4309C36.6908 24.8828 30.7781 31.1385 23.6629 35.025C18.3562 37.9176 13.0644 40.7974 7.89346 43.924C5.59374 45.3135 3.78556 41.5426 6.07032 40.166L6.08421 40.1671Z" fill="white"/>
</svg>
