<svg width="64" height="133" viewBox="0 0 64 133" fill="none" xmlns="http://www.w3.org/2000/svg">
<path d="M5.55265 127.044C3.77572 120.672 3.40765 113.922 5.16387 107.507C6.59636 102.279 9.26411 97.4799 12.814 93.4C15.5861 90.2116 18.96 87.375 22.7263 85.4465C24.9218 84.3244 27.2979 83.626 29.7133 83.142C33.2536 82.4451 36.9604 82.2505 40.5207 82.9671C43.3805 83.5415 46.2761 84.9413 47.8608 87.4981C49.4456 90.0549 48.9613 93.2938 46.9972 95.5789C42.3311 101 33.4303 99.9475 27.5695 97.4401C24.4568 96.1083 21.5878 94.2452 19.5466 91.5022C17.6876 89.0011 16.6079 86.0016 15.9888 82.9776C14.5273 75.8399 14.9574 68.2154 16.868 61.2099C18.7785 54.2045 22.2804 47.4715 26.8006 41.6441C31.6749 35.3532 37.6194 29.9579 43.657 24.8256C45.2549 23.4685 46.8665 22.12 48.4847 20.7792C49.5611 19.8852 48.1665 18.2185 47.0901 19.1126C40.3794 24.6945 33.6991 30.3445 27.9132 36.9037C22.6281 42.9033 18.3483 49.7928 15.7669 57.3863C13.1855 64.9797 12.3874 72.979 13.4258 80.865C13.8684 84.2373 14.7461 87.6263 16.4013 90.6187C18.0566 93.6112 20.6021 96.166 23.6841 97.9244C30 101.535 38.8763 103.437 45.5175 99.5371C48.4658 97.8052 50.8217 94.8782 51.0108 91.3583C51.1763 88.1857 49.4781 85.3495 47.0113 83.4639C44.2245 81.3315 40.626 80.5532 37.1765 80.3922C33.2773 80.2131 29.3253 80.7934 25.5975 81.9612C21.4054 83.277 17.6816 85.7113 14.4365 88.654C10.3045 92.4056 6.9407 97.0114 4.73102 102.142C2.08046 108.303 1.28451 115.131 2.21542 121.77C2.48181 123.686 2.89645 125.571 3.41537 127.429C3.78363 128.772 5.92749 128.395 5.55265 127.044Z" fill="white"/>
<path d="M55.2986 27.0536C51.4194 22.4736 47.533 17.893 43.7088 13.267C43.2819 12.7488 42.8549 12.2306 42.4358 11.7058C42.3108 11.5564 42.1937 11.4004 42.0759 11.2517C42.0365 11.2045 41.9995 11.1285 41.9522 11.0879C41.9384 11.0794 41.9338 11.0499 41.92 11.0414C42.1743 11.2095 42.0952 12.0175 42.0697 12.0589L41.5138 12.6644C48.4539 9.9046 55.6986 8.46716 62.9606 6.83476L61.6819 5.66594C60.4736 13.3669 57.3837 20.3766 53.5682 27.1181C52.8862 28.3237 54.6508 29.5939 55.3413 28.3745C59.3556 21.2796 62.582 13.9617 63.8479 5.85842C63.9521 5.17637 63.2296 4.54455 62.5691 4.68962C57.8692 5.74193 53.1303 6.65981 48.494 7.97974C46.2542 8.61757 44.0415 9.35968 41.8644 10.1923C41.0054 10.5235 39.5356 10.9314 40.0677 12.1502C40.1455 12.3391 40.3046 12.5133 40.4284 12.6771C43.4684 16.7095 46.9023 20.4858 50.1612 24.3485C51.3138 25.7098 52.4656 27.0784 53.6181 28.4397C54.52 29.5096 56.1939 28.1156 55.2848 27.0451L55.2986 27.0536Z" fill="white"/>
</svg>
