<svg width="98" height="95" viewBox="0 0 98 95" fill="none" xmlns="http://www.w3.org/2000/svg">
<path d="M53.9802 49.8687C61.397 39.7644 65.9944 26.8601 62.3159 14.3996C61.3135 11.0365 55.9452 12.1755 56.9594 15.5616C60.2405 26.7011 56.0287 37.8276 49.4074 46.8447C47.3071 49.6992 51.903 52.7115 53.9802 49.8687Z" fill="white"/>
<path d="M56.6262 42.7316C51.7963 32.4537 41.689 20.7876 29.2941 21.6615C10.9416 22.9445 6.49084 46.1042 12.1015 60.2499C17.3939 73.6001 30.8426 82.1422 44.7375 83.9281C52.527 84.9216 60.5077 83.6705 67.7176 80.6502C77.0658 76.7293 83.2789 69.5596 86.195 59.8766C87.5147 55.4611 88.2335 50.3506 85.8718 46.1421C83.7914 42.4287 79.768 40.1984 75.8554 38.8692C68.6389 36.4086 58.0431 35.8872 52.3476 41.9371C49.9387 44.4991 53.5831 48.6055 55.9977 46.0261C60.0184 41.7579 67.4336 42.1877 72.6072 43.5999C75.2374 44.3201 78.0324 45.4206 80.0015 47.4062C82.5301 49.9773 82.1255 53.8251 81.294 57.0343C79.119 65.3241 74.3963 71.5749 66.5722 75.1837C60.6493 77.911 54.1022 79.1282 47.6063 78.7088C35.9508 77.9583 24.3348 71.7035 18.6308 61.2761C15.8344 56.1573 14.7042 50.4074 15.2791 44.6158C15.945 37.8348 19.464 29.9049 26.4836 27.707C37.783 24.1703 47.5 36.2094 51.7365 45.2372C53.2349 48.4347 58.1189 45.9465 56.6205 42.749L56.6262 42.7316Z" fill="white"/>
</svg>
